#!OML:ASF F:\VICON\USERDATA\INSTALL\rory3\rory3.ASF
:FULLY-SPECIFIED
:DEGREES
557
root 5.18077 17.7885 -6.27172 23.3655 -30.4102 -19.7077
lowerback 8.59126 1.51497 4.91209
upperback -0.594139 2.89292 8.30899
thorax -5.67159 1.37259 5.63639
lowerneck -6.01109 -8.53359 -16.2106
upperneck 24.5166 -15.3856 20.7554
head 11.9849 -6.82991 8.59709
rclavicle 2.36554e-014 3.4191e-014
rhumerus -1.02805 -1.40669 -55.3827
rradius 80.4791
rwrist -20.4078
rhand -17.9363 21.7148
rfingers 7.12502
rthumb 8.33183 -8.10087
lclavicle 2.36554e-014 3.4191e-014
lhumerus -21.1622 39.9383 14.7991
lradius 30.2124
lwrist -5.99985
lhand -3.92042 37.9334
lfingers 7.12502
lthumb 21.8304 66.7221
rfemur 5.87824 -0.24356 25.4309
rtibia 23.1205
rfoot 18.8765 -8.79517
rtoes 10.8343
lfemur -59.2957 16.2771 -6.3492
ltibia 55.7561
lfoot -5.62408 -7.023
ltoes -15.8328
558
root 5.09579 17.8738 -5.95812 23.1169 -30.2742 -19.8605
lowerback 8.28503 1.4559 4.81125
upperback -0.804418 2.81231 8.75297
thorax -5.74792 1.34289 6.19755
lowerneck -5.53118 -8.55722 -16.7507
upperneck 24.9553 -15.4263 20.4971
head 12.0888 -6.94474 8.62721
rclavicle -4.56211e-014 3.97569e-016
rhumerus -0.129546 -0.352021 -54.6346
rradius 80.8111
rwrist -20.6386
rhand -18.5464 22.3445
rfingers 7.12502
rthumb 7.74294 -7.49369
lclavicle -4.56211e-014 3.97569e-016
lhumerus -23.4962 39.8247 12.4403
lradius 30.3849
lwrist -5.46143
lhand -2.65906 35.6302
lfingers 7.12502
lthumb 23.0411 64.2728
rfemur 7.82745 -0.898193 24.5748
rtibia 20.8784
rfoot 21.8605 -8.19307
rtoes 12.1624
lfemur -58.0028 15.5303 -5.84911
ltibia 51.9343
lfoot -3.1183 -6.14267
ltoes -14.1015
559
root 5.0121 17.95 -5.65861 22.6922 -30.0419 -19.892
lowerback 8.01056 1.35484 4.74987
upperback -0.917199 2.66749 9.09772
thorax -5.72382 1.27898 6.63629
lowerneck -5.23465 -8.57097 -17.0833
upperneck 25.4488 -15.4194 20.0748
head 12.2063 -7.01983 8.55272
rclavicle -2.80286e-014 3.33958e-014
rhumerus 0.779734 0.212564 -54.0758
rradius 81.0221
rwrist -20.4206
rhand -18.5011 22.6571
rfingers 7.12502
rthumb 7.78668 -7.17951
lclavicle -2.80286e-014 3.33958e-014
lhumerus -25.4076 39.2256 10.3892
lradius 30.6317
lwrist -3.96167
lhand -2.61266 35.4583
lfingers 7.12502
lthumb 23.0857 64.0953
rfemur 9.86545 -1.43097 23.7641
rtibia 19.1274
rfoot 24.5584 -8.08018
rtoes 13.565
lfemur -56.689 14.6977 -5.38689
ltibia 48.1935
lfoot -0.700815 -4.91131
ltoes -13.2831
560
root 4.9261 18.0114 -5.36113 22.2772 -30.057 -19.9965
lowerback 7.72917 1.3674 4.58366
upperback -1.01923 2.6625 9.41931
thorax -5.69839 1.28815 7.09244
lowerneck -4.96582 -8.59384 -17.3153
upperneck 25.9212 -15.4411 19.6754
head 12.3234 -7.0967 8.46151
rclavicle 5.40694e-014 -3.73715e-014
rhumerus 1.42275 0.768619 -53.4582
rradius 81.2705
rwrist -20.2631
rhand -18.4376 22.788
rfingers 7.12502
rthumb 7.848 -7.04635
lclavicle 5.40694e-014 -3.73715e-014
lhumerus -26.904 37.9249 8.90622
lradius 31.0836
lwrist -1.45866
lhand -4.34575 36.6907
lfingers 7.12502
lthumb 21.4219 65.5264
rfemur 11.7011 -1.35522 23.0696
rtibia 18.133
rfoot 27.0412 -8.25927
rtoes 14.5275
lfemur -55.278 14.0916 -4.90236
ltibia 44.6352
lfoot 1.5492 -3.33256
ltoes -12.1447
561
root 4.83919 18.052 -5.05634 21.9329 -30.2089 -20.4481
lowerback 7.44324 1.5294 4.72769
upperback -1.06018 2.87678 9.70902
thorax -5.61025 1.39417 7.3074
lowerneck -4.47953 -8.69727 -17.3984
upperneck 26.1735 -15.6416 19.4283
head 12.3533 -7.24263 8.37009
rclavicle 3.63776e-014 -9.14409e-014
rhumerus 1.74643 0.992936 -52.9225
rradius 81.4968
rwrist -19.9136
rhand -18.4479 22.8461
rfingers 7.12502
rthumb 7.83808 -6.98865
lclavicle 3.63776e-014 -9.14409e-014
lhumerus -27.7764 37.0594 7.65907
lradius 31.248
lwrist -0.126544
lhand -4.95859 36.7837
lfingers 7.12502
lthumb 20.8332 65.6852
rfemur 13.4651 -0.86598 22.628
rtibia 17.8699
rfoot 29.3786 -9.36214
rtoes 17.6695
lfemur -53.7367 13.6032 -4.07078
ltibia 41.4377
lfoot 3.25047 -1.73707
ltoes -12.7375
562
root 4.75363 18.0781 -4.74838 21.535 -30.2545 -20.9718
lowerback 7.0567 1.86349 5.2807
upperback -0.98006 3.32078 9.74238
thorax -5.31731 1.59689 6.97581
lowerneck -4.03045 -9.05408 -17.0353
upperneck 26.1979 -16.2857 19.3603
head 12.3849 -7.52758 8.18092
rclavicle 5.86415e-014 7.79236e-014
rhumerus 1.63703 0.104822 -52.6849
rradius 81.5799
rwrist -19.3029
rhand -18.2311 23.1265
rfingers 7.12502
rthumb 8.04734 -6.7003
lclavicle 5.86415e-014 7.79236e-014
lhumerus -27.4184 36.8089 6.80317
lradius 31.0541
lwrist -0.244323
lhand -4.51238 36.7271
lfingers 7.12502
lthumb 21.2619 65.5809
rfemur 15.0808 -0.403343 22.2414
rtibia 18.3377
rfoot 29.1483 -10.2838
rtoes 15.403
lfemur -52.2491 12.8977 -3.05692
ltibia 38.6755
lfoot 4.37932 -0.324807
ltoes -14.5597
563
root 4.66974 18.092 -4.43922 21.1111 -30.1909 -21.4445
lowerback 6.64282 2.09129 5.76948
upperback -0.806202 3.5972 9.84055
thorax -4.89732 1.72142 6.78011
lowerneck -4.06841 -9.41663 -16.7857
upperneck 26.3414 -16.898 19.3609
head 12.5792 -7.77266 8.03456
rclavicle 1.63003e-014 6.75868e-014
rhumerus 1.72096 -0.791546 -52.4671
rradius 81.5633
rwrist -19.0013
rhand -17.9199 23.4594
rfingers 7.12502
rthumb 8.34762 -6.35568
lclavicle 1.63003e-014 6.75868e-014
lhumerus -27.2307 36.0029 6.02809
lradius 31.0675
lwrist 0.32648
lhand -4.59219 36.9286
lfingers 7.12502
lthumb 21.1852 65.791
rfemur 16.3476 -0.115601 21.7861
rtibia 19.5547
rfoot 30.268 -11.1829
rtoes 16.3739
lfemur -50.9513 12.0818 -2.07987
ltibia 36.3663
lfoot 5.13344 1.85981
ltoes -13.6706
564
root 4.58744 18.0876 -4.13759 20.6017 -30.0231 -21.9264
lowerback 6.47054 2.15507 6.12665
upperback -0.58887 3.66665 10.0994
thorax -4.57136 1.74922 6.8587
lowerneck -4.61556 -9.70388 -16.6146
upperneck 26.7539 -17.3228 19.191
head 12.9357 -7.91875 7.85497
rclavicle 3.97569e-015 -3.02153e-014
rhumerus 2.05985 -1.32777 -52.2692
rradius 81.5088
rwrist -19.0535
rhand -17.6614 23.498
rfingers 7.12502
rthumb 8.59713 -6.30695
lclavicle 3.97569e-015 -3.02153e-014
lhumerus -27.3713 35.1125 5.18818
lradius 31.0887
lwrist 1.30776
lhand -5.51081 37.294
lfingers 7.12502
lthumb 20.3026 66.2528
rfemur 17.4792 0.118074 21.3888
rtibia 21.2552
rfoot 31.264 -11.5281
rtoes 17.5603
lfemur -49.7833 11.2582 -1.13274
ltibia 34.5801
lfoot 5.25855 4.68036
ltoes -9.6916
565
root 4.50749 18.0715 -3.84334 19.8482 -30.0472 -22.0451
lowerback 6.44745 2.21175 6.06002
upperback -0.489957 3.72894 10.3223
thorax -4.4797 1.78533 7.13702
lowerneck -4.84786 -9.86585 -16.5712
upperneck 27.2673 -17.5655 18.888
head 13.2205 -8.026 7.69326
rclavicle -7.95139e-016 -7.15625e-015
rhumerus 2.14074 -1.61167 -52.0655
rradius 81.392
rwrist -19.4501
rhand -17.3672 23.5006
rfingers 7.12502
rthumb 8.88103 -6.29253
lclavicle -7.95139e-016 -7.15625e-015
lhumerus -27.5465 34.0014 4.39952
lradius 31.0666
lwrist 1.67275
lhand -6.84876 38.4305
lfingers 7.12502
lthumb 19.0163 67.5209
rfemur 18.4749 0.603415 20.7104
rtibia 23.2982
rfoot 31.5879 -11.1938
rtoes 17.0738
lfemur -48.6677 10.5538 -0.709558
ltibia 33.3349
lfoot 5.15039 7.33079
ltoes -12.8705
566
root 4.43117 18.0367 -3.54043 19.0389 -29.7943 -22.3644
lowerback 6.322 2.16276 6.47481
upperback -0.389032 3.66762 10.574
thorax -4.28939 1.74623 7.19056
lowerneck -4.57799 -9.9209 -16.7066
upperneck 27.5484 -17.6681 18.6836
head 13.2962 -8.11602 7.6398
rclavicle -6.36111e-015 -1.66979e-014
rhumerus 2.02809 -1.89696 -51.8833
rradius 81.1835
rwrist -19.8442
rhand -17.3289 23.593
rfingers 7.12502
rthumb 8.91794 -6.19858
lclavicle -6.36111e-015 -1.66979e-014
lhumerus -27.6632 32.69 3.60161
lradius 30.9883
lwrist 1.16956
lhand -7.39329 39.0907
lfingers 7.12502
lthumb 18.4925 68.2317
rfemur 19.6204 0.781082 20.1141
rtibia 25.4626
rfoot 31.9139 -10.7219
rtoes 18.568
lfemur -47.7456 10.0718 -0.427902
ltibia 32.7754
lfoot 4.95655 10.3762
ltoes -13.0348
567
root 4.35214 17.9804 -3.22383 18.1502 -29.6369 -22.5933
lowerback 6.00086 2.1266 6.90636
upperback -0.217581 3.58258 10.7653
thorax -3.9055 1.6967 7.17501
lowerneck -4.23223 -9.97532 -16.8174
upperneck 27.666 -17.7412 18.4643
head 13.2733 -8.1971 7.57347
rclavicle 2.72335e-014 -3.73715e-014
rhumerus 1.77347 -2.19198 -51.6886
rradius 80.959
rwrist -19.9716
rhand -17.9265 23.7744
rfingers 7.12502
rthumb 8.34122 -6.04094
lclavicle 2.72335e-014 -3.73715e-014
lhumerus -27.7318 31.5188 2.82372
lradius 30.9452
lwrist 0.13507
lhand -7.68014 39.2198
lfingers 7.12502
lthumb 18.2166 68.3867
rfemur 20.7066 1.07013 19.3138
rtibia 27.95
rfoot 31.9316 -10.6532
rtoes 22.1897
lfemur -46.8054 10.0839 -0.601302
ltibia 32.5221
lfoot 4.38341 13.8745
ltoes -5.63055
568
root 4.27373 17.8962 -2.90173 17.3741 -29.227 -23.1657
lowerback 5.67725 2.02697 7.73475
upperback -0.0590872 3.4322 11.0425
thorax -3.51275 1.60687 7.03817
lowerneck -4.10515 -10.1211 -16.7307
upperneck 27.9432 -17.9011 17.989
head 13.3317 -8.30102 7.34404
rclavicle 1.68967e-014 -2.22639e-014
rhumerus 1.28055 -2.42968 -51.3867
rradius 80.7197
rwrist -20.1442
rhand -18.988 24.0704
rfingers 7.12502
rthumb 7.31677 -5.78314
lclavicle 1.68967e-014 -2.22639e-014
lhumerus -27.8955 29.6331 2.3209
lradius 31.3366
lwrist -0.384854
lhand -8.75263 40.0874
lfingers 7.12502
lthumb 17.1845 69.3475
rfemur 21.9314 1.21422 18.8201
rtibia 30.3892
rfoot 31.8194 -10.5969
rtoes 24.3672
lfemur -46.1435 10.6808 -0.826063
ltibia 32.724
lfoot 4.53323 16.4165
ltoes 0.535523
